<?xml version="1.0" encoding="UTF-8" standalone="no"?>
<!-- Created with Inkscape (http://www.inkscape.org/) -->

<svg
   width="210mm"
   height="297mm"
   viewBox="0 0 210 297"
   version="1.1"
   id="svg1"
   xml:space="preserve"
   inkscape:version="1.3.1 (9b9bdc1480, 2023-11-25, custom)"
   sodipodi:docname="new_version.svg"
   xmlns:inkscape="http://www.inkscape.org/namespaces/inkscape"
   xmlns:sodipodi="http://sodipodi.sourceforge.net/DTD/sodipodi-0.dtd"
   xmlns="http://www.w3.org/2000/svg"
   xmlns:svg="http://www.w3.org/2000/svg"><sodipodi:namedview
     id="namedview1"
     pagecolor="#ffffff"
     bordercolor="#000000"
     borderopacity="0.25"
     inkscape:showpageshadow="2"
     inkscape:pageopacity="0.0"
     inkscape:pagecheckerboard="0"
     inkscape:deskcolor="#d1d1d1"
     inkscape:document-units="mm"
     showguides="true"
     inkscape:zoom="0.55181661"
     inkscape:cx="512.85154"
     inkscape:cy="566.31133"
     inkscape:window-width="1920"
     inkscape:window-height="973"
     inkscape:window-x="0"
     inkscape:window-y="32"
     inkscape:window-maximized="1"
     inkscape:current-layer="layer1" /><defs
     id="defs1" /><g
     inkscape:label="Layer 1"
     inkscape:groupmode="layer"
     id="layer1"><g
       id="g1"
       transform="matrix(0.77707803,0,0,0.77707803,1.4843696,1.4235499)"><path
         d="M 40,12 H 22 L 18,8 H 8 C 5.8,8 4,9.8 4,12 v 8 h 40 v -4 c 0,-2.2 -1.8,-4 -4,-4 z"
         fill="#ffa000"
         id="path1-4" /><path
         d="M 40,12 H 8 c -2.2,0 -4,1.8 -4,4 v 20 c 0,2.2 1.8,4 4,4 h 32 c 2.2,0 4,-1.8 4,-4 V 16 c 0,-2.2 -1.8,-4 -4,-4 z"
         fill="#ffca28"
         id="path2" /></g><g
       id="g4"
       transform="matrix(0.77707802,0,0,0.77707808,131.26928,1.7137099)"><path
         d="M 40,12 H 22 L 18,8 H 8 C 5.8,8 4,9.8 4,12 v 8 h 40 v -4 c 0,-2.2 -1.8,-4 -4,-4 z"
         fill="#ffa000"
         id="path3" /><path
         d="M 40,12 H 8 c -2.2,0 -4,1.8 -4,4 v 20 c 0,2.2 1.8,4 4,4 h 32 c 2.2,0 4,-1.8 4,-4 V 16 c 0,-2.2 -1.8,-4 -4,-4 z"
         fill="#ffca28"
         id="path4" /></g><g
       id="g6"
       transform="matrix(0.77707802,0,0,0.77707808,66.376896,1.1215799)"><path
         d="M 40,12 H 22 L 18,8 H 8 C 5.8,8 4,9.8 4,12 v 8 h 40 v -4 c 0,-2.2 -1.8,-4 -4,-4 z"
         fill="#ffa000"
         id="path5" /><path
         d="M 40,12 H 8 c -2.2,0 -4,1.8 -4,4 v 20 c 0,2.2 1.8,4 4,4 h 32 c 2.2,0 4,-1.8 4,-4 V 16 c 0,-2.2 -1.8,-4 -4,-4 z"
         fill="#ffca28"
         id="path6" /></g><path
       d="m 78.224871,51.21429 c -2.05e-4,-0.44662 -0.298651,-0.83812 -0.729262,-0.95663 l -8.764896,-8.5403 c -0.18623,-0.23195 -0.467837,-0.36664 -0.765301,-0.36601 H 21.92154 c -0.985318,-0.002 -1.78446,0.7976 -1.782927,1.78292 v 30.50101 c -0.0016,0.98532 0.797609,1.78445 1.782927,1.78291 h 54.523167 c 0.982072,-0.002 1.776152,-0.80084 1.774617,-1.78291 V 51.20874 Z m -9.269563,-6.3775 5.956036,5.57893 H 68.955308 Z M 22.129504,73.43287 V 43.33392 h 44.829372 v 8.07169 c 2e-6,0.55283 0.448157,1.00099 1.000984,1.00099 h 8.274118 v 21.02627 z"
       id="path9"
       style="stroke-width:0.277282"
       sodipodi:nodetypes="cccccccccccccccccccccccc" /><path
       style="fill:none;fill-rule:evenodd;stroke:#000000;stroke-width:0.229387px;stroke-linecap:butt;stroke-linejoin:miter;stroke-opacity:1"
       d="m 104.59133,49.25423 v 0"
       id="path16"
       inkscape:connector-type="polyline"
       inkscape:connector-curvature="0" /><text
       xml:space="preserve"
       style="font-size:5.50529px;fill:#000000;stroke-width:0.229387"
       x="4.9452906"
       y="16.52224"
       id="text17"><tspan
         sodipodi:role="line"
         id="tspan17"
         style="stroke-width:0.229387"
         x="4.9452906"
         y="16.52224">Preprocess</tspan></text><text
       xml:space="preserve"
       style="font-size:5.50529px;fill:#000000;stroke-width:0.229387"
       x="69.260956"
       y="17.229469"
       id="text18"><tspan
         sodipodi:role="line"
         id="tspan18"
         style="stroke-width:0.229387"
         x="69.260956"
         y="17.229469">Summarise</tspan></text><text
       xml:space="preserve"
       style="font-size:5.50529px;fill:#000000;stroke-width:0.229387"
       x="137.25319"
       y="15.981467"
       id="text19"><tspan
         sodipodi:role="line"
         id="tspan19"
         style="stroke-width:0.229387"
         x="137.25319"
         y="15.981467">Visualise</tspan></text><text
       xml:space="preserve"
       style="font-size:3.05848px;fill:#000000;stroke-width:0.229387"
       x="87.63427"
       y="46.791908"
       id="text24"><tspan
         sodipodi:role="line"
         id="tspan24"
         style="stroke-width:0.229387"
         x="87.63427"
         y="46.791908">class summarise:</tspan><tspan
         sodipodi:role="line"
         style="stroke-width:0.229387"
         x="87.63427"
         y="50.615013"
         id="tspan26">    def __init__(self,data_tbl):</tspan><tspan
         sodipodi:role="line"
         style="stroke-width:0.229387"
         x="87.63427"
         y="54.438103"
         id="tspan36">        self.data = data_tbl</tspan><tspan
         sodipodi:role="line"
         style="stroke-width:0.229387"
         x="87.63427"
         y="58.261208"
         id="tspan37">        self.summary = None</tspan><tspan
         sodipodi:role="line"
         style="stroke-width:0.229387"
         x="87.63427"
         y="62.084312"
         id="tspan38">    def summarise(self):</tspan><tspan
         sodipodi:role="line"
         style="stroke-width:0.229387"
         x="87.63427"
         y="65.907402"
         id="tspan39">        ...</tspan><tspan
         sodipodi:role="line"
         style="stroke-width:0.229387"
         x="87.63427"
         y="69.730507"
         id="tspan40">        self.summary = summary_tbl</tspan></text><text
       xml:space="preserve"
       style="font-size:3.05848px;fill:#000000;stroke-width:0.229387"
       x="152.76836"
       y="46.325249"
       id="text25"><tspan
         sodipodi:role="line"
         id="tspan25"
         style="stroke-width:0.229387"
         x="152.76836"
         y="46.325249">class visualise:</tspan><tspan
         sodipodi:role="line"
         style="stroke-width:0.229387"
         x="152.76836"
         y="50.148354"
         id="tspan27">    def __init__(self,data_tbl):</tspan><tspan
         sodipodi:role="line"
         style="stroke-width:0.229387"
         x="152.76836"
         y="53.971443"
         id="tspan41">        self.data = data_tbl</tspan><tspan
         sodipodi:role="line"
         style="stroke-width:0.229387"
         x="152.76836"
         y="57.794548"
         id="tspan42">        self.plot = None</tspan><tspan
         sodipodi:role="line"
         style="stroke-width:0.229387"
         x="152.76836"
         y="61.617653"
         id="tspan43">    def plot_fig(self):</tspan><tspan
         sodipodi:role="line"
         style="stroke-width:0.229387"
         x="152.76836"
         y="65.440742"
         id="tspan45">        ...</tspan><tspan
         sodipodi:role="line"
         style="stroke-width:0.229387"
         x="152.76836"
         y="69.263847"
         id="tspan44">        self.plot = plot_object</tspan></text><path
       d="m 142.96776,51.21429 c -2.1e-4,-0.44662 -0.29865,-0.83812 -0.72926,-0.95663 l -8.7649,-8.5403 c -0.18623,-0.23195 -0.46784,-0.36664 -0.7653,-0.36601 H 86.664519 c -0.985305,-0.002 -1.784441,0.7976 -1.782905,1.78292 v 30.50101 c -0.0013,0.98532 0.7976,1.78445 1.782905,1.78291 h 54.523061 c 0.98208,-0.002 1.77617,-0.80084 1.77463,-1.78291 V 51.20874 Z m -9.26957,-6.3775 5.95604,5.57893 h -5.95604 z M 86.872473,73.43287 V 43.33392 h 44.829287 v 8.07169 c 1e-5,0.55283 0.44817,1.00099 1.00098,1.00099 h 8.27412 v 21.02627 z"
       id="path27"
       style="stroke-width:0.277282"
       sodipodi:nodetypes="cccccccccccccccccccccccc"
       inkscape:connector-avoid="true" /><path
       d="m 208.10165,51.21429 c -2e-4,-0.44662 -0.29865,-0.83812 -0.72926,-0.95663 l -8.7649,-8.5403 c -0.18622,-0.23195 -0.46784,-0.36664 -0.76528,-0.36601 h -46.04389 c -0.98532,-0.002 -1.78446,0.7976 -1.78292,1.78292 v 30.50101 c -0.001,0.98532 0.7976,1.78445 1.78292,1.78291 h 54.52317 c 0.98207,-0.002 1.77614,-0.80084 1.77463,-1.78291 V 51.20874 Z m -9.26955,-6.3775 5.95604,5.57893 H 198.8321 Z M 152.00628,73.43287 V 43.33392 h 44.82939 v 8.07169 c 0,0.55283 0.44814,1.00099 1.00097,1.00099 h 8.27413 v 21.02627 z"
       id="path28"
       style="stroke-width:0.277282"
       sodipodi:nodetypes="cccccccccccccccccccccccc" /><text
       xml:space="preserve"
       style="font-size:3.05848px;fill:#000000;stroke-width:0.229387"
       x="22.82699"
       y="46.631798"
       id="text28"><tspan
         sodipodi:role="line"
         id="tspan28"
         style="stroke-width:0.229387"
         x="22.82699"
         y="46.631798">class preprocess:</tspan><tspan
         sodipodi:role="line"
         style="stroke-width:0.229387"
         x="22.82699"
         y="50.454903"
         id="tspan29">    def __inti__(self,raw_tbl):</tspan><tspan
         sodipodi:role="line"
         style="stroke-width:0.229387"
         x="22.82699"
         y="54.277992"
         id="tspan34">        self.raw = raw_tbl</tspan><tspan
         sodipodi:role="line"
         style="stroke-width:0.229387"
         x="22.82699"
         y="58.101097"
         id="tspan35">        self.tidy = None</tspan><tspan
         sodipodi:role="line"
         style="stroke-width:0.229387"
         x="22.82699"
         y="61.924202"
         id="tspan31">    def process_raw(self):</tspan><tspan
         sodipodi:role="line"
         style="stroke-width:0.229387"
         x="22.82699"
         y="65.747292"
         id="tspan32">        ...</tspan><tspan
         sodipodi:role="line"
         style="stroke-width:0.229387"
         x="22.82699"
         y="69.570396"
         id="tspan33">        self.tidy_tbl =  tidy_tbl</tspan></text><path
       style="fill:none;fill-rule:evenodd;stroke:#000000;stroke-width:0.229387px;stroke-linecap:butt;stroke-linejoin:miter;stroke-opacity:1"
       d="M 35.675803,20.073423 H 49.181741 V 41.35135"
       id="path29"
       inkscape:connector-type="orthogonal"
       inkscape:connector-curvature="0"
       inkscape:connection-start="#g1"
       inkscape:connection-end="#path9" /><path
       style="fill:none;fill-rule:evenodd;stroke:#000000;stroke-width:0.229387px;stroke-linecap:butt;stroke-linejoin:miter;stroke-opacity:1"
       d="m 100.56833,19.771454 h 13.35636 V 41.35135"
       id="path30"
       inkscape:connector-type="orthogonal"
       inkscape:connector-curvature="0"
       inkscape:connection-start="#g6"
       inkscape:connection-end="#path27" /><path
       style="fill:none;fill-rule:evenodd;stroke:#000000;stroke-width:0.229387px;stroke-linecap:butt;stroke-linejoin:miter;stroke-opacity:1"
       d="m 165.46071,20.363584 h 13.59781 V 41.35135"
       id="path31"
       inkscape:connector-type="orthogonal"
       inkscape:connector-curvature="0"
       inkscape:connection-start="#g4"
       inkscape:connection-end="#path28" /><g
       id="g68"
       transform="matrix(0.86697471,0,0,0.86697471,-8.2244975,-0.89674014)"><path
         d="m 179.27847,122.47533 c -2.4e-4,-0.51515 -0.34448,-0.96672 -0.84116,-1.10342 l -10.10975,-9.85074 c -0.2148,-0.26755 -0.53962,-0.4229 -0.88272,-0.42218 H 96.344496 c -1.1365,-0.002 -2.05826,0.91999 -2.05649,2.0565 v 102.91457 c -0.002,1.13651 0.91999,2.05827 2.05649,2.0565 h 80.880664 c 1.13276,-0.004 2.04868,-0.92373 2.04691,-2.0565 v -93.60113 z m -10.69185,-7.35608 6.86991,6.43497 h -6.86991 z M 96.584366,215.83659 V 113.38577 h 69.699494 v 9.31024 c 1e-5,0.63766 0.51692,1.15458 1.15457,1.15458 h 9.54367 v 91.986 z"
         id="path45"
         style="stroke-width:0.319827"
         sodipodi:nodetypes="cccccccccccccccccccccccc" /><text
         xml:space="preserve"
         style="font-size:3.52777px;fill:#000000;stroke-width:0.264583"
         x="98.717567"
         y="117.8841"
         id="text46"><tspan
           sodipodi:role="line"
           id="tspan46"
           style="stroke-width:0.264583"
           x="98.717567"
           y="117.8841">                    Analysis_Class.py</tspan><tspan
           sodipodi:role="line"
           style="stroke-width:0.264583"
           x="98.717567"
           y="122.29382"
           id="tspan68">import preprocess</tspan><tspan
           sodipodi:role="line"
           style="stroke-width:0.264583"
           x="98.717567"
           y="126.70353"
           id="tspan63">import summarise</tspan><tspan
           sodipodi:role="line"
           style="stroke-width:0.264583"
           x="98.717567"
           y="131.11324"
           id="tspan60">import visualise</tspan><tspan
           sodipodi:role="line"
           style="stroke-width:0.264583"
           x="98.717567"
           y="135.52295"
           id="tspan61"></tspan><tspan
           sodipodi:role="line"
           style="stroke-width:0.264583"
           x="98.717567"
           y="139.93266"
           id="tspan62">class analysis:</tspan><tspan
           sodipodi:role="line"
           style="stroke-width:0.264583"
           x="98.717567"
           y="144.34238"
           id="tspan47">    def __init__(raw_data):</tspan><tspan
           sodipodi:role="line"
           style="stroke-width:0.264583"
           x="98.717567"
           y="148.75209"
           id="tspan48">        self.raw = raw_data</tspan><tspan
           sodipodi:role="line"
           style="stroke-width:0.264583"
           x="98.717567"
           y="153.1618"
           id="tspan49">        self.tidy = None</tspan><tspan
           sodipodi:role="line"
           style="stroke-width:0.264583"
           x="98.717567"
           y="157.57152"
           id="tspan50">        self.summary = None</tspan><tspan
           sodipodi:role="line"
           style="stroke-width:0.264583"
           x="98.717567"
           y="161.98123"
           id="tspan51">        self.plot = None</tspan><tspan
           sodipodi:role="line"
           style="stroke-width:0.264583"
           x="98.717567"
           y="166.39095"
           id="tspan64" /><tspan
           sodipodi:role="line"
           style="stroke-width:0.264583"
           x="98.717567"
           y="170.80066"
           id="tspan52">    def process(self):</tspan><tspan
           sodipodi:role="line"
           style="stroke-width:0.264583"
           x="98.717567"
           y="175.21036"
           id="tspan53">        data_obj = preprocess(self.raw)</tspan><tspan
           sodipodi:role="line"
           style="stroke-width:0.264583"
           x="98.717567"
           y="179.62007"
           id="tspan55">        self.tidy = data_obj.process_raw()</tspan><tspan
           sodipodi:role="line"
           style="stroke-width:0.264583"
           x="98.717567"
           y="184.02979"
           id="tspan65" /><tspan
           sodipodi:role="line"
           style="stroke-width:0.264583"
           x="98.717567"
           y="188.4395"
           id="tspan56">    def summarise(self):</tspan><tspan
           sodipodi:role="line"
           style="stroke-width:0.264583"
           x="98.717567"
           y="192.84921"
           id="tspan57">        stat_obj = summarise(self.tidy)</tspan><tspan
           sodipodi:role="line"
           style="stroke-width:0.264583"
           x="98.717567"
           y="197.25893"
           id="tspan59">        self.summary = stat_obj.summarise()</tspan><tspan
           sodipodi:role="line"
           style="stroke-width:0.264583"
           x="98.717567"
           y="201.66864"
           id="tspan58" /><tspan
           sodipodi:role="line"
           style="stroke-width:0.264583"
           x="98.717567"
           y="206.07835"
           id="tspan54">    def visualise(self):</tspan><tspan
           sodipodi:role="line"
           style="stroke-width:0.264583"
           x="98.717567"
           y="210.48807"
           id="tspan66">        viz_obj = visualise(self.summary)</tspan><tspan
           sodipodi:role="line"
           style="stroke-width:0.264583"
           x="98.717567"
           y="214.89778"
           id="tspan67">        self.plot = viz.obj.plot_fig()</tspan></text></g><g
       id="g79"
       transform="matrix(0.86697471,0,0,0.86697471,-8.6004684,-6.5421301)"><g
         id="g76"><path
           d="m 179.27845,243.12609 c -2.4e-4,-0.51515 -0.34448,-0.96672 -0.84116,-1.10342 l -10.10975,-9.85074 c -0.2148,-0.26755 -0.53962,-0.4229 -0.88272,-0.42218 H 96.344501 c -1.136491,-0.002 -2.058248,0.91999 -2.056478,2.0565 v 35.18125 c -0.002,1.13651 0.919987,2.05827 2.056478,2.0565 h 80.880639 c 1.13276,-0.004 2.04868,-0.92373 2.04691,-2.0565 v -25.86781 z m -10.69185,-7.35608 6.86991,6.43497 h -6.86991 z m -72.002229,32.98402 v -34.7175 h 69.699469 v 9.31024 c 1e-5,0.63766 0.51692,1.15458 1.15457,1.15458 h 9.54367 v 24.25268 z"
           id="path68"
           style="stroke-width:0.319827"
           sodipodi:nodetypes="cccccccccccccccccccccccc" /></g><text
         xml:space="preserve"
         style="font-size:3.52777px;fill:#000000;stroke-width:0.264583"
         x="97.758667"
         y="244.70697"
         id="text69"><tspan
           sodipodi:role="line"
           style="stroke-width:0.264583"
           x="97.758667"
           y="244.70697"
           id="tspan71">import Analysis_class</tspan><tspan
           sodipodi:role="line"
           style="stroke-width:0.264583"
           x="97.758667"
           y="249.11668"
           id="tspan72" /><tspan
           sodipodi:role="line"
           style="stroke-width:0.264583"
           x="97.758667"
           y="253.5264"
           id="tspan73">analysis_obj = analysis(raw_data)</tspan><tspan
           sodipodi:role="line"
           style="stroke-width:0.264583"
           x="97.758667"
           y="257.9361"
           id="tspan74">analysis_obj.preprocess</tspan><tspan
           sodipodi:role="line"
           style="stroke-width:0.264583"
           x="97.758667"
           y="262.34583"
           id="tspan75">analysis_obj.summarise</tspan><tspan
           sodipodi:role="line"
           style="stroke-width:0.264583"
           x="97.758667"
           y="266.75552"
           id="tspan76">analysis_obj.visualise</tspan><tspan
           sodipodi:role="line"
           style="stroke-width:0.264583"
           x="97.758667"
           y="271.16525"
           id="tspan70" /></text><text
         xml:space="preserve"
         style="font-size:3.52778px;fill:#000000;stroke-width:0.264583"
         x="125.28264"
         y="238.59132"
         id="text77"><tspan
           sodipodi:role="line"
           id="tspan77"
           style="font-size:3.52778px;stroke-width:0.264583"
           x="125.28264"
           y="238.59132">Execution.py</tspan></text></g><path
       style="fill:none;fill-rule:evenodd;stroke:#000000;stroke-width:0.229387px;stroke-linecap:butt;stroke-linejoin:miter;stroke-opacity:1"
       d="M 113.92469,95.423274 V 75.41819"
       id="path82"
       inkscape:connector-type="orthogonal"
       inkscape:connector-curvature="0"
       inkscape:connection-start="#g68"
       inkscape:connection-end="#path27" /><path
       style="fill:none;fill-rule:evenodd;stroke:#000000;stroke-width:0.229387px;stroke-linecap:butt;stroke-linejoin:miter;stroke-opacity:1"
       d="m 147.19985,141.81837 h 31.85867 V 75.41819"
       id="path84"
       inkscape:connector-type="orthogonal"
       inkscape:connector-curvature="0"
       inkscape:connection-start="#g68"
       inkscape:connection-end="#path28"
       sodipodi:nodetypes="ccc" /><path
       style="fill:none;fill-rule:evenodd;stroke:#000000;stroke-width:0.229387px;stroke-linecap:butt;stroke-linejoin:miter;stroke-opacity:1"
       d="m 109.89262,142.74796 h 0.47049 v -0.92959"
       id="path85"
       inkscape:connector-type="orthogonal"
       inkscape:connector-curvature="0"
       inkscape:connection-end="#g68" /><path
       style="fill:none;fill-rule:evenodd;stroke:#000000;stroke-width:0.229387px;stroke-linecap:butt;stroke-linejoin:miter;stroke-opacity:1"
       d="m 110.36311,194.37904 v -6.16557"
       id="path86"
       inkscape:connector-type="orthogonal"
       inkscape:connector-curvature="0"
       inkscape:connection-start="#g79"
       inkscape:connection-end="#g68" /><path
       style="fill:none;fill-rule:evenodd;stroke:#000000;stroke-width:0.264583px;stroke-linecap:butt;stroke-linejoin:miter;stroke-opacity:1"
       d="m 49.181741,75.41819 0,66.40018 h 24.339078"
       id="path87"
       inkscape:connector-type="orthogonal"
       inkscape:connector-curvature="0"
       inkscape:connection-start="#path9"
       inkscape:connection-end="#g68" /></g></svg>
